<?xml version="1.0" ?><!DOCTYPE svg PUBLIC '-//W3C//DTD SVG 1.1//EN' 'http://www.w3.org/Graphics/SVG/1.1/DTD/svg11.dtd'><svg enable-background="new 0 0 64 64" height="64px" id="Layer_1" version="1.1" viewBox="0 0 64 64" width="64px" xml:space="preserve" xmlns="http://www.w3.org/2000/svg" xmlns:xlink="http://www.w3.org/1999/xlink"><path d="M50.273,19.5c-4.461,0-8.373,2.356-10.585,5.883c-2.205-1.938-4.869-3.002-7.688-3.002c-2.822,0-5.484,1.063-7.689,3.001c-2.212-3.526-6.124-5.882-10.584-5.882c-6.893,0-12.5,5.607-12.5,12.5s5.607,12.5,12.5,12.5s12.5-5.607,12.5-12.5c0-1.31-0.205-2.571-0.58-3.759c1.778-1.846,4.004-2.86,6.353-2.86c2.347,0,4.574,1.017,6.353,2.863c-0.375,1.187-0.579,2.448-0.579,3.756c0,6.893,5.607,12.5,12.5,12.5s12.5-5.607,12.5-12.5S57.166,19.5,50.273,19.5zM13.727,41.5c-5.238,0-9.5-4.262-9.5-9.5s4.262-9.5,9.5-9.5s9.5,4.262,9.5,9.5S18.965,41.5,13.727,41.5zM50.273,41.5c-5.238,0-9.5-4.262-9.5-9.5s4.262-9.5,9.5-9.5s9.5,4.262,9.5,9.5S55.512,41.5,50.273,41.5z"/></svg>